<svg width="11" height="12" viewBox="0 0 11 12" fill="none" xmlns="http://www.w3.org/2000/svg">
<g id="Vector">
<path id="Vector_2" d="M0.330305 0.19998C0.517035 0.0545815 0.757879 -0.0155408 0.99989 0.00502878C1.2419 0.0255984 1.46527 0.135176 1.6209 0.309673L5.5 4.6614L9.3791 0.307959C9.53493 0.133405 9.75854 0.0238744 10.0007 0.00346369C10.243 -0.016947 10.4839 0.0534337 10.6706 0.199123C10.8573 0.344812 10.9745 0.553876 10.9963 0.780323C11.0181 1.00677 10.9428 1.23205 10.787 1.4066L6.69343 6L10.787 10.5934C10.9358 10.7687 11.0053 10.9913 10.9808 11.2139C10.9562 11.4364 10.8396 11.6412 10.6558 11.7844C10.472 11.9276 10.2355 11.998 9.99695 11.9804C9.7584 11.9628 9.53666 11.8587 9.3791 11.6903L5.5 7.3386L1.6209 11.692C1.46507 11.8666 1.24146 11.9761 0.999252 11.9965C0.757048 12.0169 0.516091 11.9466 0.329389 11.8009C0.142688 11.6552 0.0255358 11.4461 0.00370473 11.2197C-0.0181263 10.9932 0.0571521 10.768 0.21298 10.5934L4.30657 6L0.21298 1.4066C0.0574627 1.23202 -0.0175393 1.00685 0.00446174 0.780583C0.0264628 0.554317 0.143665 0.34548 0.330305 0.19998Z" fill="#006D7A"/>
</g>
</svg>
